<mxfile host="65bd71144e">
    <diagram id="7ElkPXCqsw9GalQeH-A1" name="Page-1">
        <mxGraphModel dx="2931" dy="2203" grid="1" gridSize="10" guides="1" tooltips="1" connect="1" arrows="1" fold="1" page="1" pageScale="1" pageWidth="827" pageHeight="1169" math="0" shadow="0">
            <root>
                <mxCell id="0"/>
                <mxCell id="1" parent="0"/>
                <mxCell id="OYt9u_9xjLAlxOfr2Ssf-31" style="edgeStyle=orthogonalEdgeStyle;rounded=0;orthogonalLoop=1;jettySize=auto;html=1;endArrow=none;endFill=0;strokeColor=default;" parent="1" source="OYt9u_9xjLAlxOfr2Ssf-1" target="OYt9u_9xjLAlxOfr2Ssf-29" edge="1">
                    <mxGeometry relative="1" as="geometry">
                        <Array as="points">
                            <mxPoint x="630" y="452"/>
                            <mxPoint x="630" y="632"/>
                            <mxPoint x="400" y="632"/>
                        </Array>
                    </mxGeometry>
                </mxCell>
                <mxCell id="OYt9u_9xjLAlxOfr2Ssf-32" style="edgeStyle=orthogonalEdgeStyle;rounded=0;orthogonalLoop=1;jettySize=auto;html=1;endArrow=none;endFill=0;strokeColor=default;" parent="1" source="OYt9u_9xjLAlxOfr2Ssf-1" target="OYt9u_9xjLAlxOfr2Ssf-30" edge="1">
                    <mxGeometry relative="1" as="geometry">
                        <mxPoint x="670" y="492" as="sourcePoint"/>
                        <Array as="points">
                            <mxPoint x="630" y="452"/>
                            <mxPoint x="630" y="632"/>
                            <mxPoint x="540" y="632"/>
                        </Array>
                    </mxGeometry>
                </mxCell>
                <mxCell id="OYt9u_9xjLAlxOfr2Ssf-41" style="edgeStyle=orthogonalEdgeStyle;rounded=0;orthogonalLoop=1;jettySize=auto;html=1;endArrow=none;endFill=0;strokeColor=default;" parent="1" source="OYt9u_9xjLAlxOfr2Ssf-1" target="OYt9u_9xjLAlxOfr2Ssf-12" edge="1">
                    <mxGeometry relative="1" as="geometry"/>
                </mxCell>
                <mxCell id="OYt9u_9xjLAlxOfr2Ssf-44" style="edgeStyle=orthogonalEdgeStyle;rounded=0;orthogonalLoop=1;jettySize=auto;html=1;entryX=1;entryY=0.5;entryDx=0;entryDy=0;endArrow=none;endFill=0;exitX=1;exitY=0.75;exitDx=0;exitDy=0;startArrow=classic;startFill=1;strokeColor=default;" parent="1" source="OYt9u_9xjLAlxOfr2Ssf-1" target="OYt9u_9xjLAlxOfr2Ssf-19" edge="1">
                    <mxGeometry relative="1" as="geometry">
                        <Array as="points">
                            <mxPoint x="610" y="432"/>
                            <mxPoint x="610" y="362"/>
                        </Array>
                    </mxGeometry>
                </mxCell>
                <mxCell id="OYt9u_9xjLAlxOfr2Ssf-45" style="edgeStyle=orthogonalEdgeStyle;rounded=0;orthogonalLoop=1;jettySize=auto;html=1;entryX=1;entryY=0.5;entryDx=0;entryDy=0;endArrow=none;endFill=0;startArrow=classic;startFill=1;strokeColor=default;" parent="1" source="OYt9u_9xjLAlxOfr2Ssf-1" target="OYt9u_9xjLAlxOfr2Ssf-20" edge="1">
                    <mxGeometry relative="1" as="geometry">
                        <Array as="points">
                            <mxPoint x="610" y="442"/>
                            <mxPoint x="610" y="522"/>
                        </Array>
                    </mxGeometry>
                </mxCell>
                <mxCell id="OYt9u_9xjLAlxOfr2Ssf-47" style="edgeStyle=orthogonalEdgeStyle;rounded=0;orthogonalLoop=1;jettySize=auto;html=1;startArrow=classic;startFill=1;endArrow=none;endFill=0;strokeColor=default;" parent="1" source="OYt9u_9xjLAlxOfr2Ssf-1" target="OYt9u_9xjLAlxOfr2Ssf-17" edge="1">
                    <mxGeometry relative="1" as="geometry"/>
                </mxCell>
                <mxCell id="OYt9u_9xjLAlxOfr2Ssf-1" value="Users" style="rounded=0;whiteSpace=wrap;html=1;direction=west;strokeColor=default;" parent="1" vertex="1">
                    <mxGeometry x="650" y="422" width="100" height="40" as="geometry"/>
                </mxCell>
                <mxCell id="OYt9u_9xjLAlxOfr2Ssf-28" style="edgeStyle=orthogonalEdgeStyle;rounded=0;orthogonalLoop=1;jettySize=auto;html=1;endArrow=none;endFill=0;startArrow=classic;startFill=1;strokeColor=default;" parent="1" source="OYt9u_9xjLAlxOfr2Ssf-2" target="OYt9u_9xjLAlxOfr2Ssf-16" edge="1">
                    <mxGeometry relative="1" as="geometry"/>
                </mxCell>
                <mxCell id="OYt9u_9xjLAlxOfr2Ssf-2" value="Classes" style="rounded=0;whiteSpace=wrap;html=1;strokeColor=default;" parent="1" vertex="1">
                    <mxGeometry x="419" y="787" width="100" height="40" as="geometry"/>
                </mxCell>
                <mxCell id="OYt9u_9xjLAlxOfr2Ssf-25" style="edgeStyle=orthogonalEdgeStyle;rounded=0;orthogonalLoop=1;jettySize=auto;html=1;endArrow=none;endFill=0;startArrow=classic;startFill=1;strokeColor=default;" parent="1" source="OYt9u_9xjLAlxOfr2Ssf-3" target="OYt9u_9xjLAlxOfr2Ssf-15" edge="1">
                    <mxGeometry relative="1" as="geometry"/>
                </mxCell>
                <mxCell id="OYt9u_9xjLAlxOfr2Ssf-122" style="edgeStyle=orthogonalEdgeStyle;rounded=0;orthogonalLoop=1;jettySize=auto;html=1;entryX=0;entryY=0.5;entryDx=0;entryDy=0;startArrow=none;startFill=0;endArrow=none;endFill=0;strokeColor=default;" parent="1" source="OYt9u_9xjLAlxOfr2Ssf-3" target="OYt9u_9xjLAlxOfr2Ssf-114" edge="1">
                    <mxGeometry relative="1" as="geometry"/>
                </mxCell>
                <mxCell id="OYt9u_9xjLAlxOfr2Ssf-123" style="edgeStyle=orthogonalEdgeStyle;rounded=0;orthogonalLoop=1;jettySize=auto;html=1;entryX=0;entryY=0.5;entryDx=0;entryDy=0;startArrow=none;startFill=0;endArrow=none;endFill=0;strokeColor=default;" parent="1" source="OYt9u_9xjLAlxOfr2Ssf-3" target="OYt9u_9xjLAlxOfr2Ssf-115" edge="1">
                    <mxGeometry relative="1" as="geometry"/>
                </mxCell>
                <mxCell id="OYt9u_9xjLAlxOfr2Ssf-124" style="edgeStyle=orthogonalEdgeStyle;rounded=0;orthogonalLoop=1;jettySize=auto;html=1;entryX=0;entryY=0.5;entryDx=0;entryDy=0;startArrow=none;startFill=0;endArrow=none;endFill=0;strokeColor=default;" parent="1" source="OYt9u_9xjLAlxOfr2Ssf-3" target="OYt9u_9xjLAlxOfr2Ssf-117" edge="1">
                    <mxGeometry relative="1" as="geometry"/>
                </mxCell>
                <mxCell id="OYt9u_9xjLAlxOfr2Ssf-125" style="edgeStyle=orthogonalEdgeStyle;rounded=0;orthogonalLoop=1;jettySize=auto;html=1;entryX=0;entryY=0.5;entryDx=0;entryDy=0;startArrow=none;startFill=0;endArrow=none;endFill=0;strokeColor=default;" parent="1" source="OYt9u_9xjLAlxOfr2Ssf-3" target="OYt9u_9xjLAlxOfr2Ssf-118" edge="1">
                    <mxGeometry relative="1" as="geometry"/>
                </mxCell>
                <mxCell id="OYt9u_9xjLAlxOfr2Ssf-126" style="edgeStyle=orthogonalEdgeStyle;rounded=0;orthogonalLoop=1;jettySize=auto;html=1;entryX=0;entryY=0.5;entryDx=0;entryDy=0;startArrow=none;startFill=0;endArrow=none;endFill=0;strokeColor=default;" parent="1" source="OYt9u_9xjLAlxOfr2Ssf-3" target="OYt9u_9xjLAlxOfr2Ssf-121" edge="1">
                    <mxGeometry relative="1" as="geometry"/>
                </mxCell>
                <mxCell id="OYt9u_9xjLAlxOfr2Ssf-3" value="ProblemSets" style="rounded=0;whiteSpace=wrap;html=1;strokeColor=default;" parent="1" vertex="1">
                    <mxGeometry x="749" y="667" width="100" height="40" as="geometry"/>
                </mxCell>
                <mxCell id="OYt9u_9xjLAlxOfr2Ssf-42" style="edgeStyle=orthogonalEdgeStyle;rounded=0;orthogonalLoop=1;jettySize=auto;html=1;endArrow=none;endFill=0;strokeColor=default;" parent="1" source="OYt9u_9xjLAlxOfr2Ssf-4" target="OYt9u_9xjLAlxOfr2Ssf-13" edge="1">
                    <mxGeometry relative="1" as="geometry"/>
                </mxCell>
                <mxCell id="OYt9u_9xjLAlxOfr2Ssf-65" style="edgeStyle=orthogonalEdgeStyle;rounded=0;orthogonalLoop=1;jettySize=auto;html=1;entryX=1;entryY=0.5;entryDx=0;entryDy=0;startArrow=none;startFill=0;endArrow=none;endFill=0;strokeColor=default;" parent="1" source="OYt9u_9xjLAlxOfr2Ssf-4" target="OYt9u_9xjLAlxOfr2Ssf-62" edge="1">
                    <mxGeometry relative="1" as="geometry"/>
                </mxCell>
                <mxCell id="OYt9u_9xjLAlxOfr2Ssf-66" style="edgeStyle=orthogonalEdgeStyle;rounded=0;orthogonalLoop=1;jettySize=auto;html=1;entryX=1;entryY=0.5;entryDx=0;entryDy=0;startArrow=none;startFill=0;endArrow=none;endFill=0;strokeColor=default;" parent="1" source="OYt9u_9xjLAlxOfr2Ssf-4" target="OYt9u_9xjLAlxOfr2Ssf-63" edge="1">
                    <mxGeometry relative="1" as="geometry"/>
                </mxCell>
                <mxCell id="OYt9u_9xjLAlxOfr2Ssf-67" style="edgeStyle=orthogonalEdgeStyle;rounded=0;orthogonalLoop=1;jettySize=auto;html=1;entryX=1;entryY=0.5;entryDx=0;entryDy=0;startArrow=none;startFill=0;endArrow=none;endFill=0;strokeColor=default;" parent="1" source="OYt9u_9xjLAlxOfr2Ssf-4" target="OYt9u_9xjLAlxOfr2Ssf-64" edge="1">
                    <mxGeometry relative="1" as="geometry"/>
                </mxCell>
                <mxCell id="OYt9u_9xjLAlxOfr2Ssf-4" value="Roles" style="rounded=0;whiteSpace=wrap;html=1;strokeColor=default;" parent="1" vertex="1">
                    <mxGeometry x="650" y="222" width="100" height="40" as="geometry"/>
                </mxCell>
                <mxCell id="OYt9u_9xjLAlxOfr2Ssf-73" style="edgeStyle=orthogonalEdgeStyle;rounded=0;orthogonalLoop=1;jettySize=auto;html=1;entryX=0;entryY=0.5;entryDx=0;entryDy=0;startArrow=none;startFill=0;endArrow=none;endFill=0;strokeColor=default;" parent="1" source="OYt9u_9xjLAlxOfr2Ssf-5" target="OYt9u_9xjLAlxOfr2Ssf-68" edge="1">
                    <mxGeometry relative="1" as="geometry"/>
                </mxCell>
                <mxCell id="OYt9u_9xjLAlxOfr2Ssf-74" style="edgeStyle=orthogonalEdgeStyle;rounded=0;orthogonalLoop=1;jettySize=auto;html=1;entryX=0;entryY=0.5;entryDx=0;entryDy=0;startArrow=none;startFill=0;endArrow=none;endFill=0;strokeColor=default;" parent="1" source="OYt9u_9xjLAlxOfr2Ssf-5" target="OYt9u_9xjLAlxOfr2Ssf-69" edge="1">
                    <mxGeometry relative="1" as="geometry"/>
                </mxCell>
                <mxCell id="OYt9u_9xjLAlxOfr2Ssf-5" value="Permissions" style="rounded=0;whiteSpace=wrap;html=1;strokeColor=default;" parent="1" vertex="1">
                    <mxGeometry x="890" y="222" width="100" height="40" as="geometry"/>
                </mxCell>
                <mxCell id="OYt9u_9xjLAlxOfr2Ssf-54" style="edgeStyle=orthogonalEdgeStyle;rounded=0;orthogonalLoop=1;jettySize=auto;html=1;startArrow=none;startFill=0;endArrow=none;endFill=0;strokeColor=default;" parent="1" source="OYt9u_9xjLAlxOfr2Ssf-6" target="OYt9u_9xjLAlxOfr2Ssf-50" edge="1">
                    <mxGeometry relative="1" as="geometry"/>
                </mxCell>
                <mxCell id="OYt9u_9xjLAlxOfr2Ssf-6" value="Tokens" style="rounded=0;whiteSpace=wrap;html=1;strokeColor=default;" parent="1" vertex="1">
                    <mxGeometry x="350" y="342" width="100" height="40" as="geometry"/>
                </mxCell>
                <mxCell id="OYt9u_9xjLAlxOfr2Ssf-7" value="Webauthn Credentials" style="rounded=0;whiteSpace=wrap;html=1;strokeColor=default;" parent="1" vertex="1">
                    <mxGeometry x="350" y="502" width="100" height="40" as="geometry"/>
                </mxCell>
                <mxCell id="OYt9u_9xjLAlxOfr2Ssf-8" value="Grades" style="rounded=0;whiteSpace=wrap;html=1;strokeColor=default;" parent="1" vertex="1">
                    <mxGeometry x="650" y="787" width="100" height="40" as="geometry"/>
                </mxCell>
                <mxCell id="OYt9u_9xjLAlxOfr2Ssf-11" value="Problems" style="rounded=0;whiteSpace=wrap;html=1;strokeColor=default;" parent="1" vertex="1">
                    <mxGeometry x="1028" y="332" width="100" height="40" as="geometry"/>
                </mxCell>
                <mxCell id="OYt9u_9xjLAlxOfr2Ssf-40" style="edgeStyle=orthogonalEdgeStyle;rounded=0;orthogonalLoop=1;jettySize=auto;html=1;endArrow=none;endFill=0;strokeColor=default;" parent="1" source="OYt9u_9xjLAlxOfr2Ssf-12" target="OYt9u_9xjLAlxOfr2Ssf-4" edge="1">
                    <mxGeometry relative="1" as="geometry"/>
                </mxCell>
                <mxCell id="OYt9u_9xjLAlxOfr2Ssf-12" value="User&lt;br&gt;Has&lt;br&gt;Roles" style="rhombus;whiteSpace=wrap;html=1;strokeColor=default;" parent="1" vertex="1">
                    <mxGeometry x="660" y="312" width="80" height="80" as="geometry"/>
                </mxCell>
                <mxCell id="OYt9u_9xjLAlxOfr2Ssf-43" style="edgeStyle=orthogonalEdgeStyle;rounded=0;orthogonalLoop=1;jettySize=auto;html=1;endArrow=classic;endFill=1;strokeColor=default;" parent="1" source="OYt9u_9xjLAlxOfr2Ssf-13" target="OYt9u_9xjLAlxOfr2Ssf-5" edge="1">
                    <mxGeometry relative="1" as="geometry"/>
                </mxCell>
                <mxCell id="OYt9u_9xjLAlxOfr2Ssf-13" value="Role&lt;br&gt;Has&lt;br&gt;Permission" style="rhombus;whiteSpace=wrap;html=1;strokeColor=default;" parent="1" vertex="1">
                    <mxGeometry x="780" y="202" width="80" height="80" as="geometry"/>
                </mxCell>
                <mxCell id="OYt9u_9xjLAlxOfr2Ssf-22" style="edgeStyle=orthogonalEdgeStyle;rounded=0;orthogonalLoop=1;jettySize=auto;html=1;exitX=0.5;exitY=0;exitDx=0;exitDy=0;entryX=0.5;entryY=1;entryDx=0;entryDy=0;strokeColor=default;endArrow=none;endFill=0;startArrow=none;" parent="1" source="7" target="OYt9u_9xjLAlxOfr2Ssf-11" edge="1">
                    <mxGeometry relative="1" as="geometry">
                        <Array as="points">
                            <mxPoint x="1035" y="392"/>
                            <mxPoint x="1078" y="392"/>
                        </Array>
                    </mxGeometry>
                </mxCell>
                <mxCell id="OYt9u_9xjLAlxOfr2Ssf-24" style="edgeStyle=orthogonalEdgeStyle;rounded=0;orthogonalLoop=1;jettySize=auto;html=1;endArrow=none;endFill=0;strokeColor=default;" parent="1" source="OYt9u_9xjLAlxOfr2Ssf-14" target="OYt9u_9xjLAlxOfr2Ssf-3" edge="1">
                    <mxGeometry relative="1" as="geometry"/>
                </mxCell>
                <mxCell id="OYt9u_9xjLAlxOfr2Ssf-14" value="Problem&lt;br&gt;In&lt;br&gt;ProblemSet" style="rhombus;whiteSpace=wrap;html=1;strokeColor=default;" parent="1" vertex="1">
                    <mxGeometry x="759" y="517" width="80" height="80" as="geometry"/>
                </mxCell>
                <mxCell id="OYt9u_9xjLAlxOfr2Ssf-26" style="edgeStyle=orthogonalEdgeStyle;rounded=0;orthogonalLoop=1;jettySize=auto;html=1;endArrow=none;endFill=0;entryX=1;entryY=0.5;entryDx=0;entryDy=0;strokeColor=default;" parent="1" source="OYt9u_9xjLAlxOfr2Ssf-15" edge="1">
                    <mxGeometry relative="1" as="geometry">
                        <mxPoint x="700" y="807" as="targetPoint"/>
                    </mxGeometry>
                </mxCell>
                <mxCell id="OYt9u_9xjLAlxOfr2Ssf-15" value="Grades&lt;br&gt;On&lt;br&gt;ProblemSet" style="rhombus;whiteSpace=wrap;html=1;strokeColor=default;" parent="1" vertex="1">
                    <mxGeometry x="759" y="767" width="80" height="80" as="geometry"/>
                </mxCell>
                <mxCell id="OYt9u_9xjLAlxOfr2Ssf-27" style="edgeStyle=orthogonalEdgeStyle;rounded=0;orthogonalLoop=1;jettySize=auto;html=1;endArrow=none;endFill=0;strokeColor=default;" parent="1" source="OYt9u_9xjLAlxOfr2Ssf-16" target="OYt9u_9xjLAlxOfr2Ssf-8" edge="1">
                    <mxGeometry relative="1" as="geometry"/>
                </mxCell>
                <mxCell id="OYt9u_9xjLAlxOfr2Ssf-16" value="Grades&lt;br&gt;On&lt;br&gt;Classes" style="rhombus;whiteSpace=wrap;html=1;strokeColor=default;" parent="1" vertex="1">
                    <mxGeometry x="549" y="767" width="80" height="80" as="geometry"/>
                </mxCell>
                <mxCell id="OYt9u_9xjLAlxOfr2Ssf-36" style="edgeStyle=orthogonalEdgeStyle;rounded=0;orthogonalLoop=1;jettySize=auto;html=1;endArrow=none;endFill=0;strokeColor=default;" parent="1" source="OYt9u_9xjLAlxOfr2Ssf-17" target="OYt9u_9xjLAlxOfr2Ssf-8" edge="1">
                    <mxGeometry relative="1" as="geometry"/>
                </mxCell>
                <mxCell id="OYt9u_9xjLAlxOfr2Ssf-17" value="Grades&lt;br&gt;BelongsTo&lt;br&gt;Users" style="rhombus;whiteSpace=wrap;html=1;strokeColor=default;" parent="1" vertex="1">
                    <mxGeometry x="660" y="492" width="80" height="80" as="geometry"/>
                </mxCell>
                <mxCell id="OYt9u_9xjLAlxOfr2Ssf-38" style="edgeStyle=orthogonalEdgeStyle;rounded=0;orthogonalLoop=1;jettySize=auto;html=1;endArrow=none;endFill=0;strokeColor=default;" parent="1" source="OYt9u_9xjLAlxOfr2Ssf-19" target="OYt9u_9xjLAlxOfr2Ssf-6" edge="1">
                    <mxGeometry relative="1" as="geometry"/>
                </mxCell>
                <mxCell id="OYt9u_9xjLAlxOfr2Ssf-19" value="User&lt;br&gt;Has&lt;br&gt;Tokens" style="rhombus;whiteSpace=wrap;html=1;strokeColor=default;" parent="1" vertex="1">
                    <mxGeometry x="480" y="322" width="80" height="80" as="geometry"/>
                </mxCell>
                <mxCell id="OYt9u_9xjLAlxOfr2Ssf-39" style="edgeStyle=orthogonalEdgeStyle;rounded=0;orthogonalLoop=1;jettySize=auto;html=1;endArrow=none;endFill=0;strokeColor=default;" parent="1" source="OYt9u_9xjLAlxOfr2Ssf-20" target="OYt9u_9xjLAlxOfr2Ssf-7" edge="1">
                    <mxGeometry relative="1" as="geometry"/>
                </mxCell>
                <mxCell id="OYt9u_9xjLAlxOfr2Ssf-20" value="User&lt;br&gt;Has&lt;br&gt;Credentials" style="rhombus;whiteSpace=wrap;html=1;strokeColor=default;" parent="1" vertex="1">
                    <mxGeometry x="490" y="482" width="80" height="80" as="geometry"/>
                </mxCell>
                <mxCell id="OYt9u_9xjLAlxOfr2Ssf-33" style="edgeStyle=orthogonalEdgeStyle;rounded=0;orthogonalLoop=1;jettySize=auto;html=1;endArrow=none;endFill=0;exitX=0.5;exitY=1;exitDx=0;exitDy=0;strokeColor=default;" parent="1" source="OYt9u_9xjLAlxOfr2Ssf-29" target="OYt9u_9xjLAlxOfr2Ssf-2" edge="1">
                    <mxGeometry relative="1" as="geometry">
                        <mxPoint x="645" y="742" as="sourcePoint"/>
                        <Array as="points">
                            <mxPoint x="400" y="762"/>
                            <mxPoint x="469" y="762"/>
                        </Array>
                    </mxGeometry>
                </mxCell>
                <mxCell id="OYt9u_9xjLAlxOfr2Ssf-29" value="Users&lt;br&gt;In&lt;br&gt;Classes" style="rhombus;whiteSpace=wrap;html=1;strokeColor=default;" parent="1" vertex="1">
                    <mxGeometry x="360" y="662" width="80" height="80" as="geometry"/>
                </mxCell>
                <mxCell id="OYt9u_9xjLAlxOfr2Ssf-34" style="edgeStyle=orthogonalEdgeStyle;rounded=0;orthogonalLoop=1;jettySize=auto;html=1;endArrow=none;endFill=0;exitX=0.5;exitY=1;exitDx=0;exitDy=0;strokeColor=default;" parent="1" source="OYt9u_9xjLAlxOfr2Ssf-30" target="OYt9u_9xjLAlxOfr2Ssf-2" edge="1">
                    <mxGeometry relative="1" as="geometry">
                        <mxPoint x="755" y="742" as="sourcePoint"/>
                        <Array as="points">
                            <mxPoint x="540" y="762"/>
                            <mxPoint x="469" y="762"/>
                        </Array>
                    </mxGeometry>
                </mxCell>
                <mxCell id="OYt9u_9xjLAlxOfr2Ssf-30" value="Users&lt;br&gt;Managing&lt;br&gt;Classes" style="rhombus;whiteSpace=wrap;html=1;strokeColor=default;" parent="1" vertex="1">
                    <mxGeometry x="500" y="662" width="80" height="80" as="geometry"/>
                </mxCell>
                <mxCell id="OYt9u_9xjLAlxOfr2Ssf-83" style="edgeStyle=orthogonalEdgeStyle;rounded=0;orthogonalLoop=1;jettySize=auto;html=1;startArrow=none;startFill=0;endArrow=none;endFill=0;entryX=0.1;entryY=1;entryDx=0;entryDy=0;entryPerimeter=0;strokeColor=default;" parent="1" source="OYt9u_9xjLAlxOfr2Ssf-75" target="OYt9u_9xjLAlxOfr2Ssf-1" edge="1">
                    <mxGeometry relative="1" as="geometry">
                        <mxPoint x="743" y="423" as="targetPoint"/>
                    </mxGeometry>
                </mxCell>
                <mxCell id="OYt9u_9xjLAlxOfr2Ssf-86" style="edgeStyle=orthogonalEdgeStyle;rounded=0;orthogonalLoop=1;jettySize=auto;html=1;entryX=0.1;entryY=1.1;entryDx=0;entryDy=0;entryPerimeter=0;startArrow=none;startFill=0;endArrow=none;endFill=0;strokeColor=default;" parent="1" source="OYt9u_9xjLAlxOfr2Ssf-76" target="OYt9u_9xjLAlxOfr2Ssf-1" edge="1">
                    <mxGeometry relative="1" as="geometry"/>
                </mxCell>
                <mxCell id="OYt9u_9xjLAlxOfr2Ssf-85" style="edgeStyle=orthogonalEdgeStyle;rounded=0;orthogonalLoop=1;jettySize=auto;html=1;entryX=0.1;entryY=1;entryDx=0;entryDy=0;entryPerimeter=0;startArrow=none;startFill=0;endArrow=none;endFill=0;strokeColor=default;" parent="1" source="OYt9u_9xjLAlxOfr2Ssf-77" target="OYt9u_9xjLAlxOfr2Ssf-1" edge="1">
                    <mxGeometry relative="1" as="geometry"/>
                </mxCell>
                <mxCell id="OYt9u_9xjLAlxOfr2Ssf-87" style="edgeStyle=orthogonalEdgeStyle;rounded=0;orthogonalLoop=1;jettySize=auto;html=1;entryX=0.1;entryY=1.05;entryDx=0;entryDy=0;entryPerimeter=0;startArrow=none;startFill=0;endArrow=none;endFill=0;strokeColor=default;" parent="1" source="OYt9u_9xjLAlxOfr2Ssf-78" target="OYt9u_9xjLAlxOfr2Ssf-1" edge="1">
                    <mxGeometry relative="1" as="geometry">
                        <Array as="points">
                            <mxPoint x="740" y="412"/>
                        </Array>
                    </mxGeometry>
                </mxCell>
                <mxCell id="OYt9u_9xjLAlxOfr2Ssf-92" style="edgeStyle=orthogonalEdgeStyle;rounded=0;orthogonalLoop=1;jettySize=auto;html=1;entryX=0;entryY=0.75;entryDx=0;entryDy=0;startArrow=none;startFill=0;endArrow=none;endFill=0;strokeColor=default;" parent="1" source="OYt9u_9xjLAlxOfr2Ssf-79" target="OYt9u_9xjLAlxOfr2Ssf-1" edge="1">
                    <mxGeometry relative="1" as="geometry">
                        <Array as="points">
                            <mxPoint x="880" y="322"/>
                            <mxPoint x="880" y="432"/>
                        </Array>
                    </mxGeometry>
                </mxCell>
                <mxCell id="OYt9u_9xjLAlxOfr2Ssf-91" style="edgeStyle=orthogonalEdgeStyle;rounded=0;orthogonalLoop=1;jettySize=auto;html=1;entryX=0;entryY=0.75;entryDx=0;entryDy=0;startArrow=none;startFill=0;endArrow=none;endFill=0;strokeColor=default;" parent="1" source="OYt9u_9xjLAlxOfr2Ssf-80" target="OYt9u_9xjLAlxOfr2Ssf-1" edge="1">
                    <mxGeometry relative="1" as="geometry">
                        <Array as="points">
                            <mxPoint x="880" y="352"/>
                            <mxPoint x="880" y="432"/>
                        </Array>
                    </mxGeometry>
                </mxCell>
                <mxCell id="OYt9u_9xjLAlxOfr2Ssf-94" style="edgeStyle=orthogonalEdgeStyle;rounded=0;orthogonalLoop=1;jettySize=auto;html=1;entryX=0;entryY=0.75;entryDx=0;entryDy=0;startArrow=none;startFill=0;endArrow=none;endFill=0;strokeColor=default;" parent="1" source="OYt9u_9xjLAlxOfr2Ssf-81" target="OYt9u_9xjLAlxOfr2Ssf-1" edge="1">
                    <mxGeometry relative="1" as="geometry">
                        <Array as="points">
                            <mxPoint x="880" y="382"/>
                            <mxPoint x="880" y="432"/>
                        </Array>
                    </mxGeometry>
                </mxCell>
                <mxCell id="OYt9u_9xjLAlxOfr2Ssf-95" style="edgeStyle=orthogonalEdgeStyle;rounded=0;orthogonalLoop=1;jettySize=auto;html=1;entryX=0;entryY=0.75;entryDx=0;entryDy=0;startArrow=none;startFill=0;endArrow=none;endFill=0;strokeColor=default;" parent="1" source="OYt9u_9xjLAlxOfr2Ssf-82" target="OYt9u_9xjLAlxOfr2Ssf-1" edge="1">
                    <mxGeometry relative="1" as="geometry">
                        <Array as="points">
                            <mxPoint x="880" y="412"/>
                            <mxPoint x="880" y="432"/>
                        </Array>
                    </mxGeometry>
                </mxCell>
                <mxCell id="OYt9u_9xjLAlxOfr2Ssf-103" style="edgeStyle=orthogonalEdgeStyle;rounded=0;orthogonalLoop=1;jettySize=auto;html=1;startArrow=none;startFill=0;endArrow=none;endFill=0;strokeColor=default;" parent="1" source="OYt9u_9xjLAlxOfr2Ssf-97" target="OYt9u_9xjLAlxOfr2Ssf-2" edge="1">
                    <mxGeometry relative="1" as="geometry"/>
                </mxCell>
                <mxCell id="OYt9u_9xjLAlxOfr2Ssf-104" style="edgeStyle=orthogonalEdgeStyle;rounded=0;orthogonalLoop=1;jettySize=auto;html=1;startArrow=none;startFill=0;endArrow=none;endFill=0;strokeColor=default;" parent="1" source="OYt9u_9xjLAlxOfr2Ssf-98" target="OYt9u_9xjLAlxOfr2Ssf-2" edge="1">
                    <mxGeometry relative="1" as="geometry"/>
                </mxCell>
                <mxCell id="OYt9u_9xjLAlxOfr2Ssf-111" style="edgeStyle=orthogonalEdgeStyle;rounded=0;orthogonalLoop=1;jettySize=auto;html=1;exitX=1;exitY=0.5;exitDx=0;exitDy=0;entryX=0.5;entryY=1;entryDx=0;entryDy=0;startArrow=none;startFill=0;endArrow=none;endFill=0;strokeColor=default;" parent="1" source="OYt9u_9xjLAlxOfr2Ssf-107" target="OYt9u_9xjLAlxOfr2Ssf-8" edge="1">
                    <mxGeometry relative="1" as="geometry"/>
                </mxCell>
                <mxCell id="OYt9u_9xjLAlxOfr2Ssf-112" style="edgeStyle=orthogonalEdgeStyle;rounded=0;orthogonalLoop=1;jettySize=auto;html=1;exitX=1;exitY=0.5;exitDx=0;exitDy=0;entryX=0.5;entryY=1;entryDx=0;entryDy=0;startArrow=none;startFill=0;endArrow=none;endFill=0;strokeColor=default;" parent="1" source="OYt9u_9xjLAlxOfr2Ssf-108" target="OYt9u_9xjLAlxOfr2Ssf-8" edge="1">
                    <mxGeometry relative="1" as="geometry"/>
                </mxCell>
                <mxCell id="OYt9u_9xjLAlxOfr2Ssf-113" style="edgeStyle=orthogonalEdgeStyle;rounded=0;orthogonalLoop=1;jettySize=auto;html=1;exitX=1;exitY=0.5;exitDx=0;exitDy=0;startArrow=none;startFill=0;endArrow=none;endFill=0;strokeColor=default;" parent="1" source="OYt9u_9xjLAlxOfr2Ssf-109" target="OYt9u_9xjLAlxOfr2Ssf-8" edge="1">
                    <mxGeometry relative="1" as="geometry"/>
                </mxCell>
                <mxCell id="OYt9u_9xjLAlxOfr2Ssf-150" style="edgeStyle=orthogonalEdgeStyle;rounded=0;orthogonalLoop=1;jettySize=auto;html=1;entryX=1;entryY=0.5;entryDx=0;entryDy=0;startArrow=none;startFill=0;endArrow=none;endFill=0;strokeColor=default;" parent="1" source="OYt9u_9xjLAlxOfr2Ssf-127" edge="1">
                    <mxGeometry relative="1" as="geometry">
                        <mxPoint x="1039" y="332" as="targetPoint"/>
                    </mxGeometry>
                </mxCell>
                <mxCell id="OYt9u_9xjLAlxOfr2Ssf-127" value="id" style="ellipse;whiteSpace=wrap;html=1;aspect=fixed;strokeColor=default;" parent="1" vertex="1">
                    <mxGeometry x="1079" y="20" width="100" height="20" as="geometry"/>
                </mxCell>
                <mxCell id="OYt9u_9xjLAlxOfr2Ssf-159" style="edgeStyle=orthogonalEdgeStyle;rounded=0;orthogonalLoop=1;jettySize=auto;html=1;entryX=1;entryY=0.5;entryDx=0;entryDy=0;startArrow=none;startFill=0;endArrow=none;endFill=0;strokeColor=default;" parent="1" source="OYt9u_9xjLAlxOfr2Ssf-128" edge="1">
                    <mxGeometry relative="1" as="geometry">
                        <mxPoint x="1039" y="332" as="targetPoint"/>
                    </mxGeometry>
                </mxCell>
                <mxCell id="OYt9u_9xjLAlxOfr2Ssf-128" value="name" style="ellipse;whiteSpace=wrap;html=1;aspect=fixed;strokeColor=default;" parent="1" vertex="1">
                    <mxGeometry x="1079" y="50" width="100" height="20" as="geometry"/>
                </mxCell>
                <mxCell id="OYt9u_9xjLAlxOfr2Ssf-158" style="edgeStyle=orthogonalEdgeStyle;rounded=0;orthogonalLoop=1;jettySize=auto;html=1;entryX=1;entryY=0.5;entryDx=0;entryDy=0;startArrow=none;startFill=0;endArrow=none;endFill=0;strokeColor=default;" parent="1" source="OYt9u_9xjLAlxOfr2Ssf-129" edge="1">
                    <mxGeometry relative="1" as="geometry">
                        <mxPoint x="1039" y="332" as="targetPoint"/>
                    </mxGeometry>
                </mxCell>
                <mxCell id="OYt9u_9xjLAlxOfr2Ssf-129" value="description" style="ellipse;whiteSpace=wrap;html=1;aspect=fixed;strokeColor=default;" parent="1" vertex="1">
                    <mxGeometry x="1079" y="80" width="100" height="20" as="geometry"/>
                </mxCell>
                <mxCell id="OYt9u_9xjLAlxOfr2Ssf-141" style="edgeStyle=orthogonalEdgeStyle;rounded=0;orthogonalLoop=1;jettySize=auto;html=1;entryX=0;entryY=0.5;entryDx=0;entryDy=0;startArrow=none;startFill=0;endArrow=none;endFill=0;strokeColor=default;" parent="1" source="OYt9u_9xjLAlxOfr2Ssf-48" target="OYt9u_9xjLAlxOfr2Ssf-6" edge="1">
                    <mxGeometry relative="1" as="geometry"/>
                </mxCell>
                <mxCell id="OYt9u_9xjLAlxOfr2Ssf-48" value="id" style="ellipse;whiteSpace=wrap;html=1;aspect=fixed;direction=west;strokeColor=default;" parent="1" vertex="1">
                    <mxGeometry x="170" y="322" width="100" height="20" as="geometry"/>
                </mxCell>
                <mxCell id="OYt9u_9xjLAlxOfr2Ssf-50" value="token" style="ellipse;whiteSpace=wrap;html=1;aspect=fixed;direction=west;strokeColor=default;" parent="1" vertex="1">
                    <mxGeometry x="170" y="352" width="100" height="20" as="geometry"/>
                </mxCell>
                <mxCell id="OYt9u_9xjLAlxOfr2Ssf-142" style="edgeStyle=orthogonalEdgeStyle;rounded=0;orthogonalLoop=1;jettySize=auto;html=1;entryX=0;entryY=0.5;entryDx=0;entryDy=0;startArrow=none;startFill=0;endArrow=none;endFill=0;strokeColor=default;" parent="1" source="OYt9u_9xjLAlxOfr2Ssf-51" target="OYt9u_9xjLAlxOfr2Ssf-6" edge="1">
                    <mxGeometry relative="1" as="geometry"/>
                </mxCell>
                <mxCell id="OYt9u_9xjLAlxOfr2Ssf-51" value="created_at" style="ellipse;whiteSpace=wrap;html=1;aspect=fixed;direction=west;strokeColor=default;" parent="1" vertex="1">
                    <mxGeometry x="170" y="382" width="100" height="20" as="geometry"/>
                </mxCell>
                <mxCell id="OYt9u_9xjLAlxOfr2Ssf-143" style="edgeStyle=orthogonalEdgeStyle;rounded=0;orthogonalLoop=1;jettySize=auto;html=1;startArrow=none;startFill=0;endArrow=none;endFill=0;strokeColor=default;" parent="1" source="OYt9u_9xjLAlxOfr2Ssf-59" target="OYt9u_9xjLAlxOfr2Ssf-7" edge="1">
                    <mxGeometry relative="1" as="geometry"/>
                </mxCell>
                <mxCell id="OYt9u_9xjLAlxOfr2Ssf-59" value="id" style="ellipse;whiteSpace=wrap;html=1;aspect=fixed;direction=west;strokeColor=default;" parent="1" vertex="1">
                    <mxGeometry x="170" y="482" width="100" height="20" as="geometry"/>
                </mxCell>
                <mxCell id="OYt9u_9xjLAlxOfr2Ssf-144" style="edgeStyle=orthogonalEdgeStyle;rounded=0;orthogonalLoop=1;jettySize=auto;html=1;startArrow=none;startFill=0;endArrow=none;endFill=0;strokeColor=default;" parent="1" source="OYt9u_9xjLAlxOfr2Ssf-60" target="OYt9u_9xjLAlxOfr2Ssf-7" edge="1">
                    <mxGeometry relative="1" as="geometry"/>
                </mxCell>
                <mxCell id="OYt9u_9xjLAlxOfr2Ssf-60" value="content" style="ellipse;whiteSpace=wrap;html=1;aspect=fixed;direction=west;strokeColor=default;" parent="1" vertex="1">
                    <mxGeometry x="170" y="512" width="100" height="20" as="geometry"/>
                </mxCell>
                <mxCell id="OYt9u_9xjLAlxOfr2Ssf-145" style="edgeStyle=orthogonalEdgeStyle;rounded=0;orthogonalLoop=1;jettySize=auto;html=1;entryX=0;entryY=0.5;entryDx=0;entryDy=0;startArrow=none;startFill=0;endArrow=none;endFill=0;strokeColor=default;" parent="1" source="OYt9u_9xjLAlxOfr2Ssf-61" target="OYt9u_9xjLAlxOfr2Ssf-7" edge="1">
                    <mxGeometry relative="1" as="geometry"/>
                </mxCell>
                <mxCell id="OYt9u_9xjLAlxOfr2Ssf-61" value="created_at" style="ellipse;whiteSpace=wrap;html=1;aspect=fixed;direction=west;strokeColor=default;" parent="1" vertex="1">
                    <mxGeometry x="170" y="542" width="100" height="20" as="geometry"/>
                </mxCell>
                <mxCell id="OYt9u_9xjLAlxOfr2Ssf-62" value="id" style="ellipse;whiteSpace=wrap;html=1;aspect=fixed;direction=west;strokeColor=default;" parent="1" vertex="1">
                    <mxGeometry x="530" y="112" width="100" height="20" as="geometry"/>
                </mxCell>
                <mxCell id="OYt9u_9xjLAlxOfr2Ssf-63" value="name" style="ellipse;whiteSpace=wrap;html=1;aspect=fixed;direction=west;strokeColor=default;" parent="1" vertex="1">
                    <mxGeometry x="530" y="142" width="100" height="20" as="geometry"/>
                </mxCell>
                <mxCell id="OYt9u_9xjLAlxOfr2Ssf-64" value="target" style="ellipse;whiteSpace=wrap;html=1;aspect=fixed;direction=west;strokeColor=default;" parent="1" vertex="1">
                    <mxGeometry x="530" y="172" width="100" height="20" as="geometry"/>
                </mxCell>
                <mxCell id="OYt9u_9xjLAlxOfr2Ssf-68" value="id" style="ellipse;whiteSpace=wrap;html=1;aspect=fixed;direction=west;strokeColor=default;" parent="1" vertex="1">
                    <mxGeometry x="820" y="125" width="100" height="20" as="geometry"/>
                </mxCell>
                <mxCell id="OYt9u_9xjLAlxOfr2Ssf-69" value="name" style="ellipse;whiteSpace=wrap;html=1;aspect=fixed;direction=west;strokeColor=default;" parent="1" vertex="1">
                    <mxGeometry x="820" y="155" width="100" height="20" as="geometry"/>
                </mxCell>
                <mxCell id="OYt9u_9xjLAlxOfr2Ssf-75" value="id" style="ellipse;whiteSpace=wrap;html=1;aspect=fixed;direction=west;strokeColor=default;" parent="1" vertex="1">
                    <mxGeometry x="770" y="312" width="100" height="20" as="geometry"/>
                </mxCell>
                <mxCell id="OYt9u_9xjLAlxOfr2Ssf-76" value="nickname" style="ellipse;whiteSpace=wrap;html=1;aspect=fixed;direction=west;strokeColor=default;" parent="1" vertex="1">
                    <mxGeometry x="770" y="342" width="100" height="20" as="geometry"/>
                </mxCell>
                <mxCell id="OYt9u_9xjLAlxOfr2Ssf-77" value="username" style="ellipse;whiteSpace=wrap;html=1;aspect=fixed;direction=west;strokeColor=default;" parent="1" vertex="1">
                    <mxGeometry x="770" y="372" width="100" height="20" as="geometry"/>
                </mxCell>
                <mxCell id="OYt9u_9xjLAlxOfr2Ssf-78" value="email" style="ellipse;whiteSpace=wrap;html=1;aspect=fixed;direction=west;strokeColor=default;" parent="1" vertex="1">
                    <mxGeometry x="770" y="402" width="100" height="20" as="geometry"/>
                </mxCell>
                <mxCell id="OYt9u_9xjLAlxOfr2Ssf-79" value="pasword" style="ellipse;whiteSpace=wrap;html=1;aspect=fixed;direction=west;strokeColor=default;" parent="1" vertex="1">
                    <mxGeometry x="890" y="312" width="100" height="20" as="geometry"/>
                </mxCell>
                <mxCell id="OYt9u_9xjLAlxOfr2Ssf-80" value="email_verified" style="ellipse;whiteSpace=wrap;html=1;aspect=fixed;direction=west;strokeColor=default;" parent="1" vertex="1">
                    <mxGeometry x="890" y="342" width="100" height="20" as="geometry"/>
                </mxCell>
                <mxCell id="OYt9u_9xjLAlxOfr2Ssf-81" value="created_at" style="ellipse;whiteSpace=wrap;html=1;aspect=fixed;direction=west;strokeColor=default;" parent="1" vertex="1">
                    <mxGeometry x="890" y="372" width="100" height="20" as="geometry"/>
                </mxCell>
                <mxCell id="OYt9u_9xjLAlxOfr2Ssf-82" value="updated_at" style="ellipse;whiteSpace=wrap;html=1;aspect=fixed;direction=west;strokeColor=default;" parent="1" vertex="1">
                    <mxGeometry x="890" y="402" width="100" height="20" as="geometry"/>
                </mxCell>
                <mxCell id="OYt9u_9xjLAlxOfr2Ssf-148" style="edgeStyle=orthogonalEdgeStyle;rounded=0;orthogonalLoop=1;jettySize=auto;html=1;exitX=0;exitY=0.5;exitDx=0;exitDy=0;entryX=0;entryY=0.5;entryDx=0;entryDy=0;startArrow=none;startFill=0;endArrow=none;endFill=0;strokeColor=default;" parent="1" source="OYt9u_9xjLAlxOfr2Ssf-96" target="OYt9u_9xjLAlxOfr2Ssf-2" edge="1">
                    <mxGeometry relative="1" as="geometry"/>
                </mxCell>
                <mxCell id="OYt9u_9xjLAlxOfr2Ssf-96" value="id" style="ellipse;whiteSpace=wrap;html=1;aspect=fixed;direction=west;strokeColor=default;" parent="1" vertex="1">
                    <mxGeometry x="199" y="767" width="100" height="20" as="geometry"/>
                </mxCell>
                <mxCell id="OYt9u_9xjLAlxOfr2Ssf-97" value="name" style="ellipse;whiteSpace=wrap;html=1;aspect=fixed;direction=west;strokeColor=default;" parent="1" vertex="1">
                    <mxGeometry x="199" y="797" width="100" height="20" as="geometry"/>
                </mxCell>
                <mxCell id="OYt9u_9xjLAlxOfr2Ssf-98" value="course_name" style="ellipse;whiteSpace=wrap;html=1;aspect=fixed;direction=west;strokeColor=default;" parent="1" vertex="1">
                    <mxGeometry x="199" y="827" width="100" height="20" as="geometry"/>
                </mxCell>
                <mxCell id="OYt9u_9xjLAlxOfr2Ssf-147" style="edgeStyle=orthogonalEdgeStyle;rounded=0;orthogonalLoop=1;jettySize=auto;html=1;exitX=0;exitY=0.5;exitDx=0;exitDy=0;entryX=0;entryY=0.5;entryDx=0;entryDy=0;startArrow=none;startFill=0;endArrow=none;endFill=0;strokeColor=default;" parent="1" source="OYt9u_9xjLAlxOfr2Ssf-99" target="OYt9u_9xjLAlxOfr2Ssf-2" edge="1">
                    <mxGeometry relative="1" as="geometry"/>
                </mxCell>
                <mxCell id="OYt9u_9xjLAlxOfr2Ssf-99" value="description" style="ellipse;whiteSpace=wrap;html=1;aspect=fixed;direction=west;strokeColor=default;" parent="1" vertex="1">
                    <mxGeometry x="199" y="857" width="100" height="20" as="geometry"/>
                </mxCell>
                <mxCell id="OYt9u_9xjLAlxOfr2Ssf-146" style="edgeStyle=orthogonalEdgeStyle;rounded=0;orthogonalLoop=1;jettySize=auto;html=1;exitX=0;exitY=0.5;exitDx=0;exitDy=0;entryX=0;entryY=0.5;entryDx=0;entryDy=0;startArrow=none;startFill=0;endArrow=none;endFill=0;strokeColor=default;" parent="1" source="OYt9u_9xjLAlxOfr2Ssf-101" target="OYt9u_9xjLAlxOfr2Ssf-2" edge="1">
                    <mxGeometry relative="1" as="geometry"/>
                </mxCell>
                <mxCell id="OYt9u_9xjLAlxOfr2Ssf-101" value="invite_code" style="ellipse;whiteSpace=wrap;html=1;aspect=fixed;direction=west;strokeColor=default;" parent="1" vertex="1">
                    <mxGeometry x="199" y="887" width="100" height="20" as="geometry"/>
                </mxCell>
                <mxCell id="OYt9u_9xjLAlxOfr2Ssf-107" value="id" style="ellipse;whiteSpace=wrap;html=1;direction=west;strokeColor=default;" parent="1" vertex="1">
                    <mxGeometry x="739" y="877" width="140" height="20" as="geometry"/>
                </mxCell>
                <mxCell id="OYt9u_9xjLAlxOfr2Ssf-108" value="total" style="ellipse;whiteSpace=wrap;html=1;direction=west;strokeColor=default;" parent="1" vertex="1">
                    <mxGeometry x="739" y="907" width="140" height="20" as="geometry"/>
                </mxCell>
                <mxCell id="OYt9u_9xjLAlxOfr2Ssf-109" value="detail" style="ellipse;whiteSpace=wrap;html=1;direction=west;strokeColor=default;" parent="1" vertex="1">
                    <mxGeometry x="739" y="937" width="140" height="20" as="geometry"/>
                </mxCell>
                <mxCell id="OYt9u_9xjLAlxOfr2Ssf-114" value="id" style="ellipse;whiteSpace=wrap;html=1;aspect=fixed;direction=west;strokeColor=default;" parent="1" vertex="1">
                    <mxGeometry x="860" y="707" width="100" height="20" as="geometry"/>
                </mxCell>
                <mxCell id="OYt9u_9xjLAlxOfr2Ssf-115" value="name" style="ellipse;whiteSpace=wrap;html=1;aspect=fixed;direction=west;strokeColor=default;" parent="1" vertex="1">
                    <mxGeometry x="860" y="737" width="100" height="20" as="geometry"/>
                </mxCell>
                <mxCell id="OYt9u_9xjLAlxOfr2Ssf-117" value="description" style="ellipse;whiteSpace=wrap;html=1;aspect=fixed;direction=west;strokeColor=default;" parent="1" vertex="1">
                    <mxGeometry x="860" y="767" width="100" height="20" as="geometry"/>
                </mxCell>
                <mxCell id="OYt9u_9xjLAlxOfr2Ssf-118" value="start_time" style="ellipse;whiteSpace=wrap;html=1;aspect=fixed;direction=west;strokeColor=default;" parent="1" vertex="1">
                    <mxGeometry x="860" y="797" width="100" height="20" as="geometry"/>
                </mxCell>
                <mxCell id="OYt9u_9xjLAlxOfr2Ssf-121" value="end_time" style="ellipse;whiteSpace=wrap;html=1;aspect=fixed;direction=west;strokeColor=default;" parent="1" vertex="1">
                    <mxGeometry x="860" y="827" width="100" height="20" as="geometry"/>
                </mxCell>
                <mxCell id="OYt9u_9xjLAlxOfr2Ssf-157" style="edgeStyle=orthogonalEdgeStyle;rounded=0;orthogonalLoop=1;jettySize=auto;html=1;entryX=1;entryY=0.5;entryDx=0;entryDy=0;startArrow=none;startFill=0;endArrow=none;endFill=0;strokeColor=default;" parent="1" source="OYt9u_9xjLAlxOfr2Ssf-130" edge="1">
                    <mxGeometry relative="1" as="geometry">
                        <mxPoint x="1039" y="332" as="targetPoint"/>
                    </mxGeometry>
                </mxCell>
                <mxCell id="OYt9u_9xjLAlxOfr2Ssf-130" value="attach_file_name" style="ellipse;whiteSpace=wrap;html=1;aspect=fixed;direction=west;strokeColor=default;" parent="1" vertex="1">
                    <mxGeometry x="1079" y="110" width="100" height="20" as="geometry"/>
                </mxCell>
                <mxCell id="OYt9u_9xjLAlxOfr2Ssf-149" style="edgeStyle=orthogonalEdgeStyle;rounded=0;orthogonalLoop=1;jettySize=auto;html=1;entryX=1;entryY=0.5;entryDx=0;entryDy=0;startArrow=none;startFill=0;endArrow=none;endFill=0;strokeColor=default;" parent="1" source="OYt9u_9xjLAlxOfr2Ssf-131" edge="1">
                    <mxGeometry relative="1" as="geometry">
                        <mxPoint x="1039" y="332" as="targetPoint"/>
                    </mxGeometry>
                </mxCell>
                <mxCell id="OYt9u_9xjLAlxOfr2Ssf-131" value="puiblic" style="ellipse;whiteSpace=wrap;html=1;aspect=fixed;direction=west;strokeColor=default;" parent="1" vertex="1">
                    <mxGeometry x="1079" y="140" width="100" height="20" as="geometry"/>
                </mxCell>
                <mxCell id="OYt9u_9xjLAlxOfr2Ssf-156" style="edgeStyle=orthogonalEdgeStyle;rounded=0;orthogonalLoop=1;jettySize=auto;html=1;entryX=1;entryY=0.5;entryDx=0;entryDy=0;startArrow=none;startFill=0;endArrow=none;endFill=0;strokeColor=default;" parent="1" source="OYt9u_9xjLAlxOfr2Ssf-133" edge="1">
                    <mxGeometry relative="1" as="geometry">
                        <mxPoint x="1039" y="332" as="targetPoint"/>
                    </mxGeometry>
                </mxCell>
                <mxCell id="OYt9u_9xjLAlxOfr2Ssf-133" value="memory_limit" style="ellipse;whiteSpace=wrap;html=1;aspect=fixed;direction=west;strokeColor=default;" parent="1" vertex="1">
                    <mxGeometry x="1079" y="170" width="100" height="20" as="geometry"/>
                </mxCell>
                <mxCell id="OYt9u_9xjLAlxOfr2Ssf-155" style="edgeStyle=orthogonalEdgeStyle;rounded=0;orthogonalLoop=1;jettySize=auto;html=1;entryX=1;entryY=0.5;entryDx=0;entryDy=0;startArrow=none;startFill=0;endArrow=none;endFill=0;strokeColor=default;" parent="1" source="OYt9u_9xjLAlxOfr2Ssf-134" edge="1">
                    <mxGeometry relative="1" as="geometry">
                        <mxPoint x="1039" y="332" as="targetPoint"/>
                    </mxGeometry>
                </mxCell>
                <mxCell id="OYt9u_9xjLAlxOfr2Ssf-134" value="time_limit" style="ellipse;whiteSpace=wrap;html=1;aspect=fixed;direction=west;strokeColor=default;" parent="1" vertex="1">
                    <mxGeometry x="1079" y="200" width="100" height="20" as="geometry"/>
                </mxCell>
                <mxCell id="OYt9u_9xjLAlxOfr2Ssf-154" style="edgeStyle=orthogonalEdgeStyle;rounded=0;orthogonalLoop=1;jettySize=auto;html=1;entryX=1;entryY=0.5;entryDx=0;entryDy=0;startArrow=none;startFill=0;endArrow=none;endFill=0;strokeColor=default;" parent="1" source="OYt9u_9xjLAlxOfr2Ssf-135" edge="1">
                    <mxGeometry relative="1" as="geometry">
                        <mxPoint x="1039" y="332" as="targetPoint"/>
                        <Array as="points">
                            <mxPoint x="1039" y="240"/>
                        </Array>
                    </mxGeometry>
                </mxCell>
                <mxCell id="OYt9u_9xjLAlxOfr2Ssf-135" value="language_allowed" style="ellipse;whiteSpace=wrap;html=1;aspect=fixed;direction=west;strokeColor=default;" parent="1" vertex="1">
                    <mxGeometry x="1079" y="230" width="100" height="20" as="geometry"/>
                </mxCell>
                <mxCell id="OYt9u_9xjLAlxOfr2Ssf-152" style="edgeStyle=orthogonalEdgeStyle;rounded=0;orthogonalLoop=1;jettySize=auto;html=1;startArrow=none;startFill=0;endArrow=none;endFill=0;strokeColor=default;" parent="1" edge="1">
                    <mxGeometry relative="1" as="geometry">
                        <mxPoint x="1084" y="270" as="sourcePoint"/>
                        <mxPoint x="1039" y="332" as="targetPoint"/>
                        <Array as="points">
                            <mxPoint x="1039" y="270"/>
                        </Array>
                    </mxGeometry>
                </mxCell>
                <mxCell id="OYt9u_9xjLAlxOfr2Ssf-136" value="compare_script_name" style="ellipse;whiteSpace=wrap;html=1;aspect=fixed;direction=west;strokeColor=default;" parent="1" vertex="1">
                    <mxGeometry x="1079" y="260" width="100" height="20" as="geometry"/>
                </mxCell>
                <mxCell id="OYt9u_9xjLAlxOfr2Ssf-153" style="edgeStyle=orthogonalEdgeStyle;rounded=0;orthogonalLoop=1;jettySize=auto;html=1;startArrow=none;startFill=0;endArrow=none;endFill=0;strokeColor=default;" parent="1" edge="1">
                    <mxGeometry relative="1" as="geometry">
                        <mxPoint x="1080" y="300" as="sourcePoint"/>
                        <mxPoint x="1039" y="332" as="targetPoint"/>
                        <Array as="points">
                            <mxPoint x="1039" y="300"/>
                        </Array>
                    </mxGeometry>
                </mxCell>
                <mxCell id="OYt9u_9xjLAlxOfr2Ssf-137" value="build_arg" style="ellipse;whiteSpace=wrap;html=1;aspect=fixed;direction=west;strokeColor=default;" parent="1" vertex="1">
                    <mxGeometry x="1079" y="290" width="100" height="20" as="geometry"/>
                </mxCell>
                <mxCell id="M3Gw8Ddhpgsa0aEmp7I3-2" style="edgeStyle=orthogonalEdgeStyle;rounded=0;orthogonalLoop=1;jettySize=auto;html=1;entryX=0;entryY=0.5;entryDx=0;entryDy=0;endArrow=none;endFill=0;strokeColor=default;" parent="1" source="M3Gw8Ddhpgsa0aEmp7I3-1" target="OYt9u_9xjLAlxOfr2Ssf-6" edge="1">
                    <mxGeometry relative="1" as="geometry"/>
                </mxCell>
                <mxCell id="M3Gw8Ddhpgsa0aEmp7I3-1" value="remember_me" style="ellipse;whiteSpace=wrap;html=1;aspect=fixed;direction=west;strokeColor=default;" parent="1" vertex="1">
                    <mxGeometry x="170" y="412" width="100" height="20" as="geometry"/>
                </mxCell>
                <mxCell id="123" style="edgeStyle=orthogonalEdgeStyle;html=1;entryX=0.5;entryY=1;entryDx=0;entryDy=0;fontSize=12;endArrow=none;endFill=0;strokeColor=default;" parent="1" source="5" target="7" edge="1">
                    <mxGeometry relative="1" as="geometry"/>
                </mxCell>
                <mxCell id="5" value="Test Case" style="rounded=0;whiteSpace=wrap;html=1;fontSize=12;fontStyle=0;strokeColor=default;" parent="1" vertex="1">
                    <mxGeometry x="975" y="502" width="120" height="60" as="geometry"/>
                </mxCell>
                <mxCell id="8" value="Submission" style="rounded=0;whiteSpace=wrap;html=1;fontSize=12;fontStyle=0;strokeColor=default;" parent="1" vertex="1">
                    <mxGeometry x="1166.5" y="667" width="120" height="60" as="geometry"/>
                </mxCell>
                <mxCell id="9" style="edgeStyle=orthogonalEdgeStyle;rounded=0;orthogonalLoop=1;jettySize=auto;html=1;fontSize=12;endArrow=classic;endFill=1;fontStyle=0;strokeColor=default;" parent="1" source="11" target="OYt9u_9xjLAlxOfr2Ssf-11" edge="1">
                    <mxGeometry relative="1" as="geometry">
                        <mxPoint x="1448" y="355" as="targetPoint"/>
                        <Array as="points">
                            <mxPoint x="1103" y="492"/>
                        </Array>
                    </mxGeometry>
                </mxCell>
                <mxCell id="10" style="edgeStyle=orthogonalEdgeStyle;rounded=0;orthogonalLoop=1;jettySize=auto;html=1;exitX=1;exitY=0.5;exitDx=0;exitDy=0;fontSize=12;endArrow=none;endFill=0;fontStyle=0;strokeColor=default;" parent="1" source="11" target="8" edge="1">
                    <mxGeometry relative="1" as="geometry">
                        <Array as="points">
                            <mxPoint x="1199" y="492"/>
                        </Array>
                    </mxGeometry>
                </mxCell>
                <mxCell id="11" value="For" style="rhombus;whiteSpace=wrap;html=1;fontSize=12;fontStyle=0;strokeColor=default;" parent="1" vertex="1">
                    <mxGeometry x="1119" y="462" width="60" height="60" as="geometry"/>
                </mxCell>
                <mxCell id="12" style="edgeStyle=orthogonalEdgeStyle;rounded=0;orthogonalLoop=1;jettySize=auto;html=1;fontSize=12;fontStyle=0;exitX=1;exitY=0.5;exitDx=0;exitDy=0;strokeColor=default;" parent="1" source="41" target="8" edge="1">
                    <mxGeometry relative="1" as="geometry">
                        <mxPoint x="1155" y="697" as="targetPoint"/>
                        <mxPoint x="1435" y="423" as="sourcePoint"/>
                        <Array as="points"/>
                    </mxGeometry>
                </mxCell>
                <mxCell id="13" style="edgeStyle=orthogonalEdgeStyle;rounded=0;orthogonalLoop=1;jettySize=auto;html=1;exitX=1;exitY=0.5;exitDx=0;exitDy=0;entryX=0;entryY=0.5;entryDx=0;entryDy=0;endArrow=none;endFill=0;fontStyle=0;fontSize=12;strokeColor=default;" parent="1" source="15" target="80" edge="1">
                    <mxGeometry relative="1" as="geometry">
                        <Array as="points">
                            <mxPoint x="1145" y="812"/>
                            <mxPoint x="1145" y="770"/>
                        </Array>
                    </mxGeometry>
                </mxCell>
                <mxCell id="14" style="edgeStyle=orthogonalEdgeStyle;rounded=0;orthogonalLoop=1;jettySize=auto;html=1;exitX=1;exitY=0.5;exitDx=0;exitDy=0;entryX=0;entryY=0.5;entryDx=0;entryDy=0;endArrow=none;endFill=0;fontStyle=0;fontSize=12;strokeColor=default;" parent="1" source="15" target="85" edge="1">
                    <mxGeometry relative="1" as="geometry">
                        <mxPoint x="1125" y="820" as="sourcePoint"/>
                        <Array as="points">
                            <mxPoint x="1145" y="812"/>
                            <mxPoint x="1145" y="897"/>
                        </Array>
                    </mxGeometry>
                </mxCell>
                <mxCell id="126" style="edgeStyle=orthogonalEdgeStyle;html=1;fontSize=12;endArrow=none;endFill=0;strokeColor=default;" parent="1" source="15" target="41" edge="1">
                    <mxGeometry relative="1" as="geometry"/>
                </mxCell>
                <mxCell id="15" value="Run" style="rounded=0;whiteSpace=wrap;html=1;fontSize=12;fontStyle=0;strokeColor=default;" parent="1" vertex="1">
                    <mxGeometry x="1005" y="782" width="120" height="60" as="geometry"/>
                </mxCell>
                <mxCell id="18" style="edgeStyle=orthogonalEdgeStyle;rounded=0;orthogonalLoop=1;jettySize=auto;html=1;fontSize=12;endArrow=none;endFill=0;fontStyle=0;strokeColor=default;" parent="1" source="20" target="22" edge="1">
                    <mxGeometry relative="1" as="geometry"/>
                </mxCell>
                <mxCell id="19" style="edgeStyle=orthogonalEdgeStyle;rounded=0;orthogonalLoop=1;jettySize=auto;html=1;exitX=0.75;exitY=0;exitDx=0;exitDy=0;endArrow=none;endFill=0;fontStyle=0;fontSize=12;strokeColor=default;" parent="1" source="20" target="43" edge="1">
                    <mxGeometry relative="1" as="geometry">
                        <mxPoint x="1393.75" y="481.75" as="targetPoint"/>
                        <Array as="points">
                            <mxPoint x="1421" y="442"/>
                        </Array>
                    </mxGeometry>
                </mxCell>
                <mxCell id="20" value="Language" style="rounded=0;whiteSpace=wrap;html=1;fontSize=12;fontStyle=0;strokeColor=default;" parent="1" vertex="1">
                    <mxGeometry x="1218" y="512" width="120" height="60" as="geometry"/>
                </mxCell>
                <mxCell id="135" style="edgeStyle=elbowEdgeStyle;rounded=0;elbow=vertical;html=1;fontSize=12;endArrow=classic;endFill=1;strokeColor=default;" parent="1" source="22" target="8" edge="1">
                    <mxGeometry relative="1" as="geometry">
                        <Array as="points">
                            <mxPoint x="1278" y="662"/>
                        </Array>
                    </mxGeometry>
                </mxCell>
                <mxCell id="22" value="In" style="rhombus;whiteSpace=wrap;html=1;fontSize=12;fontStyle=0;strokeColor=default;" parent="1" vertex="1">
                    <mxGeometry x="1248" y="586" width="60" height="60" as="geometry"/>
                </mxCell>
                <mxCell id="23" style="edgeStyle=orthogonalEdgeStyle;rounded=0;orthogonalLoop=1;jettySize=auto;html=1;exitX=0.5;exitY=0;exitDx=0;exitDy=0;entryX=0;entryY=0.5;entryDx=0;entryDy=0;endArrow=none;endFill=0;fontStyle=0;fontSize=12;strokeColor=default;" parent="1" source="24" target="61" edge="1">
                    <mxGeometry relative="1" as="geometry">
                        <Array as="points">
                            <mxPoint x="1361" y="225"/>
                        </Array>
                    </mxGeometry>
                </mxCell>
                <mxCell id="24" value="Script" style="rounded=0;whiteSpace=wrap;html=1;fontSize=12;fontStyle=0;strokeColor=default;" parent="1" vertex="1">
                    <mxGeometry x="1301" y="272" width="120" height="60" as="geometry"/>
                </mxCell>
                <mxCell id="25" style="edgeStyle=orthogonalEdgeStyle;rounded=0;orthogonalLoop=1;jettySize=auto;html=1;exitX=0.5;exitY=1;exitDx=0;exitDy=0;entryX=1;entryY=0.25;entryDx=0;entryDy=0;fontSize=12;endArrow=classic;endFill=1;fontStyle=0;strokeColor=default;" parent="1" source="27" target="20" edge="1">
                    <mxGeometry relative="1" as="geometry"/>
                </mxCell>
                <mxCell id="26" style="edgeStyle=orthogonalEdgeStyle;rounded=0;orthogonalLoop=1;jettySize=auto;html=1;exitX=0.5;exitY=0;exitDx=0;exitDy=0;entryX=1;entryY=0.75;entryDx=0;entryDy=0;fontSize=12;endArrow=none;endFill=0;fontStyle=0;strokeColor=default;" parent="1" source="27" target="24" edge="1">
                    <mxGeometry relative="1" as="geometry">
                        <mxPoint x="1583.75" y="479.25" as="sourcePoint"/>
                        <Array as="points">
                            <mxPoint x="1440" y="317"/>
                        </Array>
                    </mxGeometry>
                </mxCell>
                <mxCell id="27" value="Builds" style="rhombus;whiteSpace=wrap;html=1;fontSize=12;fontStyle=0;strokeColor=default;" parent="1" vertex="1">
                    <mxGeometry x="1410" y="358.25" width="60" height="60" as="geometry"/>
                </mxCell>
                <mxCell id="28" style="edgeStyle=orthogonalEdgeStyle;rounded=0;orthogonalLoop=1;jettySize=auto;html=1;exitX=0.5;exitY=1;exitDx=0;exitDy=0;entryX=1;entryY=0.75;entryDx=0;entryDy=0;fontSize=12;endArrow=classic;endFill=1;fontStyle=0;strokeColor=default;" parent="1" source="30" target="20" edge="1">
                    <mxGeometry relative="1" as="geometry"/>
                </mxCell>
                <mxCell id="29" style="edgeStyle=orthogonalEdgeStyle;rounded=0;orthogonalLoop=1;jettySize=auto;html=1;exitX=0.5;exitY=0;exitDx=0;exitDy=0;entryX=1;entryY=0.25;entryDx=0;entryDy=0;fontSize=12;endArrow=none;endFill=0;fontStyle=0;strokeColor=default;" parent="1" source="30" target="24" edge="1">
                    <mxGeometry relative="1" as="geometry">
                        <mxPoint x="1653.75" y="479.25" as="sourcePoint"/>
                    </mxGeometry>
                </mxCell>
                <mxCell id="30" value="Runs" style="rhombus;whiteSpace=wrap;html=1;fontSize=12;fontStyle=0;strokeColor=default;" parent="1" vertex="1">
                    <mxGeometry x="1480" y="358.25" width="60" height="60" as="geometry"/>
                </mxCell>
                <mxCell id="31" style="edgeStyle=orthogonalEdgeStyle;rounded=0;orthogonalLoop=1;jettySize=auto;html=1;exitX=1;exitY=0.5;exitDx=0;exitDy=0;fontSize=12;endArrow=none;endFill=0;fontStyle=0;strokeColor=default;" parent="1" source="42" target="24" edge="1">
                    <mxGeometry relative="1" as="geometry">
                        <mxPoint x="1317.5" y="388.25" as="sourcePoint"/>
                    </mxGeometry>
                </mxCell>
                <mxCell id="32" style="edgeStyle=orthogonalEdgeStyle;rounded=0;orthogonalLoop=1;jettySize=auto;html=1;exitX=0;exitY=0.5;exitDx=0;exitDy=0;entryX=1;entryY=0.5;entryDx=0;entryDy=0;fontSize=12;endArrow=classic;endFill=1;fontStyle=0;strokeColor=default;" parent="1" source="42" target="OYt9u_9xjLAlxOfr2Ssf-11" edge="1">
                    <mxGeometry relative="1" as="geometry">
                        <mxPoint x="1754.25" y="190.75" as="sourcePoint"/>
                        <mxPoint x="1528" y="297" as="targetPoint"/>
                    </mxGeometry>
                </mxCell>
                <mxCell id="108" style="edgeStyle=none;html=1;exitX=0.5;exitY=0;exitDx=0;exitDy=0;entryX=0.5;entryY=1;entryDx=0;entryDy=0;fontSize=12;endArrow=none;endFill=0;strokeColor=default;" parent="1" source="33" target="98" edge="1">
                    <mxGeometry relative="1" as="geometry"/>
                </mxCell>
                <mxCell id="33" value="Tag" style="rounded=0;whiteSpace=wrap;html=1;fontSize=12;fontStyle=0;strokeColor=default;" parent="1" vertex="1">
                    <mxGeometry x="1218" y="130" width="120" height="60" as="geometry"/>
                </mxCell>
                <mxCell id="35" style="edgeStyle=orthogonalEdgeStyle;rounded=0;orthogonalLoop=1;jettySize=auto;html=1;exitX=0.5;exitY=0;exitDx=0;exitDy=0;entryX=0.5;entryY=1;entryDx=0;entryDy=0;endArrow=none;endFill=0;fontStyle=0;fontSize=12;strokeColor=default;" parent="1" source="36" target="33" edge="1">
                    <mxGeometry relative="1" as="geometry"/>
                </mxCell>
                <mxCell id="109" style="edgeStyle=orthogonalEdgeStyle;html=1;entryX=1;entryY=0.25;entryDx=0;entryDy=0;fontSize=12;endArrow=none;endFill=0;strokeColor=default;rounded=0;" parent="1" source="36" target="OYt9u_9xjLAlxOfr2Ssf-11" edge="1">
                    <mxGeometry relative="1" as="geometry">
                        <Array as="points">
                            <mxPoint x="1278" y="342"/>
                        </Array>
                    </mxGeometry>
                </mxCell>
                <mxCell id="36" value="Labeled" style="rhombus;whiteSpace=wrap;html=1;fontSize=12;fontStyle=0;strokeColor=default;" parent="1" vertex="1">
                    <mxGeometry x="1238" y="202" width="80" height="80" as="geometry"/>
                </mxCell>
                <mxCell id="37" style="edgeStyle=orthogonalEdgeStyle;rounded=0;orthogonalLoop=1;jettySize=auto;html=1;exitX=0;exitY=0.5;exitDx=0;exitDy=0;endArrow=none;endFill=0;fontStyle=0;fontSize=12;entryX=1;entryY=0.75;entryDx=0;entryDy=0;strokeColor=default;" parent="1" source="43" target="OYt9u_9xjLAlxOfr2Ssf-11" edge="1">
                    <mxGeometry relative="1" as="geometry">
                        <mxPoint x="1847.9999999999998" y="253.25" as="sourcePoint"/>
                        <mxPoint x="1298" y="362" as="targetPoint"/>
                        <Array as="points">
                            <mxPoint x="1318" y="442"/>
                            <mxPoint x="1128" y="442"/>
                        </Array>
                    </mxGeometry>
                </mxCell>
                <mxCell id="125" style="edgeStyle=orthogonalEdgeStyle;html=1;entryX=0.75;entryY=1;entryDx=0;entryDy=0;fontSize=12;endArrow=classic;endFill=1;strokeColor=default;" parent="1" source="41" target="5" edge="1">
                    <mxGeometry relative="1" as="geometry">
                        <mxPoint x="1119.0588235294122" y="659.0588235294117" as="sourcePoint"/>
                    </mxGeometry>
                </mxCell>
                <mxCell id="41" value="Configured" style="rhombus;whiteSpace=wrap;html=1;fontSize=12;fontStyle=0;strokeColor=default;" parent="1" vertex="1">
                    <mxGeometry x="1015" y="647" width="100" height="100" as="geometry"/>
                </mxCell>
                <mxCell id="42" value="&lt;font style=&quot;font-size: 12px;&quot;&gt;Compares&lt;/font&gt;" style="rhombus;whiteSpace=wrap;html=1;fontSize=12;fontStyle=0;strokeColor=default;" parent="1" vertex="1">
                    <mxGeometry x="1230" y="344.5" width="87.5" height="87.5" as="geometry"/>
                </mxCell>
                <mxCell id="43" value="Allows" style="rhombus;whiteSpace=wrap;html=1;fontSize=12;fontStyle=0;strokeColor=default;" parent="1" vertex="1">
                    <mxGeometry x="1318" y="407" width="70" height="70" as="geometry"/>
                </mxCell>
                <mxCell id="61" value="filename" style="ellipse;whiteSpace=wrap;html=1;fontStyle=0;fontSize=12;strokeColor=default;" parent="1" vertex="1">
                    <mxGeometry x="1380" y="215" width="70" height="20" as="geometry"/>
                </mxCell>
                <mxCell id="62" style="edgeStyle=orthogonalEdgeStyle;rounded=0;orthogonalLoop=1;jettySize=auto;html=1;exitX=1;exitY=0.5;exitDx=0;exitDy=0;endArrow=none;endFill=0;fontStyle=0;fontSize=12;strokeColor=default;" parent="1" source="63" edge="1">
                    <mxGeometry relative="1" as="geometry">
                        <mxPoint x="989" y="612" as="targetPoint"/>
                    </mxGeometry>
                </mxCell>
                <mxCell id="63" value="score" style="ellipse;whiteSpace=wrap;html=1;fontStyle=0;fontSize=12;strokeColor=default;" parent="1" vertex="1">
                    <mxGeometry x="872" y="582" width="68" height="20" as="geometry"/>
                </mxCell>
                <mxCell id="64" style="edgeStyle=orthogonalEdgeStyle;rounded=0;orthogonalLoop=1;jettySize=auto;html=1;exitX=1;exitY=0.5;exitDx=0;exitDy=0;endArrow=none;endFill=0;fontStyle=0;fontSize=12;strokeColor=default;" parent="1" source="65" edge="1">
                    <mxGeometry relative="1" as="geometry">
                        <mxPoint x="989" y="616.9417475728155" as="targetPoint"/>
                    </mxGeometry>
                </mxCell>
                <mxCell id="65" value="input_file_name" style="ellipse;whiteSpace=wrap;html=1;fontStyle=0;fontSize=12;strokeColor=default;" parent="1" vertex="1">
                    <mxGeometry x="849" y="607" width="120" height="20" as="geometry"/>
                </mxCell>
                <mxCell id="66" style="edgeStyle=orthogonalEdgeStyle;rounded=0;orthogonalLoop=1;jettySize=auto;html=1;exitX=1;exitY=0.5;exitDx=0;exitDy=0;endArrow=none;endFill=0;fontStyle=0;fontSize=12;strokeColor=default;" parent="1" source="67" edge="1">
                    <mxGeometry relative="1" as="geometry">
                        <mxPoint x="989" y="641.990291262136" as="targetPoint"/>
                    </mxGeometry>
                </mxCell>
                <mxCell id="67" value="output_file_name" style="ellipse;whiteSpace=wrap;html=1;fontStyle=0;fontSize=12;strokeColor=default;" parent="1" vertex="1">
                    <mxGeometry x="849" y="632" width="118" height="20" as="geometry"/>
                </mxCell>
                <mxCell id="68" style="edgeStyle=orthogonalEdgeStyle;rounded=0;orthogonalLoop=1;jettySize=auto;html=1;exitX=1;exitY=0.5;exitDx=0;exitDy=0;endArrow=none;endFill=0;fontStyle=0;fontSize=12;strokeColor=default;" parent="1" source="69" edge="1">
                    <mxGeometry relative="1" as="geometry">
                        <mxPoint x="989" y="642" as="targetPoint"/>
                    </mxGeometry>
                </mxCell>
                <mxCell id="69" value="sample" style="ellipse;whiteSpace=wrap;html=1;fontStyle=0;fontSize=12;strokeColor=default;" parent="1" vertex="1">
                    <mxGeometry x="872" y="657" width="72" height="20" as="geometry"/>
                </mxCell>
                <mxCell id="70" value="" style="endArrow=none;html=1;fontStyle=0;fontSize=12;strokeColor=default;" parent="1" edge="1">
                    <mxGeometry width="50" height="50" relative="1" as="geometry">
                        <mxPoint x="989" y="662" as="sourcePoint"/>
                        <mxPoint x="989" y="592" as="targetPoint"/>
                    </mxGeometry>
                </mxCell>
                <mxCell id="128" style="edgeStyle=orthogonalEdgeStyle;html=1;fontSize=12;endArrow=none;endFill=0;strokeColor=default;" parent="1" source="72" edge="1">
                    <mxGeometry relative="1" as="geometry">
                        <mxPoint x="1275" y="737" as="targetPoint"/>
                    </mxGeometry>
                </mxCell>
                <mxCell id="72" value="file_name" style="ellipse;whiteSpace=wrap;html=1;fontStyle=0;fontSize=12;strokeColor=default;" parent="1" vertex="1">
                    <mxGeometry x="1295" y="742" width="72" height="20" as="geometry"/>
                </mxCell>
                <mxCell id="129" style="edgeStyle=orthogonalEdgeStyle;html=1;fontSize=12;endArrow=none;endFill=0;strokeColor=default;" parent="1" source="74" edge="1">
                    <mxGeometry relative="1" as="geometry">
                        <mxPoint x="1275" y="737" as="targetPoint"/>
                    </mxGeometry>
                </mxCell>
                <mxCell id="74" value="priority" style="ellipse;whiteSpace=wrap;html=1;fontStyle=0;fontSize=12;strokeColor=default;" parent="1" vertex="1">
                    <mxGeometry x="1295" y="767" width="72" height="20" as="geometry"/>
                </mxCell>
                <mxCell id="131" style="edgeStyle=orthogonalEdgeStyle;html=1;fontSize=12;endArrow=none;endFill=0;strokeColor=default;" parent="1" source="76" edge="1">
                    <mxGeometry relative="1" as="geometry">
                        <mxPoint x="1275" y="737" as="targetPoint"/>
                    </mxGeometry>
                </mxCell>
                <mxCell id="76" value="score" style="ellipse;whiteSpace=wrap;html=1;fontStyle=0;fontSize=12;strokeColor=default;" parent="1" vertex="1">
                    <mxGeometry x="1295" y="817" width="72" height="20" as="geometry"/>
                </mxCell>
                <mxCell id="130" style="edgeStyle=orthogonalEdgeStyle;html=1;fontSize=12;endArrow=none;endFill=0;entryX=0.904;entryY=1.004;entryDx=0;entryDy=0;entryPerimeter=0;strokeColor=default;" parent="1" source="78" target="8" edge="1">
                    <mxGeometry relative="1" as="geometry">
                        <mxPoint x="1275" y="728" as="targetPoint"/>
                    </mxGeometry>
                </mxCell>
                <mxCell id="78" value="status" style="ellipse;whiteSpace=wrap;html=1;fontStyle=0;fontSize=12;strokeColor=default;" parent="1" vertex="1">
                    <mxGeometry x="1295" y="792" width="72" height="20" as="geometry"/>
                </mxCell>
                <mxCell id="80" value="&lt;span style=&quot;font-size: 12px;&quot;&gt;&lt;u style=&quot;font-size: 12px;&quot;&gt;id&lt;/u&gt;&lt;/span&gt;" style="ellipse;whiteSpace=wrap;html=1;fontStyle=0;fontSize=12;strokeColor=default;" parent="1" vertex="1">
                    <mxGeometry x="1193.75" y="760" width="72" height="20" as="geometry"/>
                </mxCell>
                <mxCell id="81" style="edgeStyle=orthogonalEdgeStyle;rounded=0;orthogonalLoop=1;jettySize=auto;html=1;exitX=0;exitY=0.5;exitDx=0;exitDy=0;endArrow=none;endFill=0;fontStyle=0;fontSize=12;strokeColor=default;" parent="1" source="82" edge="1">
                    <mxGeometry relative="1" as="geometry">
                        <mxPoint x="1145" y="795.2" as="targetPoint"/>
                    </mxGeometry>
                </mxCell>
                <mxCell id="82" value="priority" style="ellipse;whiteSpace=wrap;html=1;fontStyle=0;fontSize=12;strokeColor=default;" parent="1" vertex="1">
                    <mxGeometry x="1193.75" y="785" width="72" height="20" as="geometry"/>
                </mxCell>
                <mxCell id="83" style="edgeStyle=orthogonalEdgeStyle;rounded=0;orthogonalLoop=1;jettySize=auto;html=1;exitX=0;exitY=0.5;exitDx=0;exitDy=0;endArrow=none;endFill=0;fontStyle=0;fontSize=12;strokeColor=default;" parent="1" source="84" edge="1">
                    <mxGeometry relative="1" as="geometry">
                        <mxPoint x="1145" y="865.2" as="targetPoint"/>
                        <Array as="points">
                            <mxPoint x="1145" y="872"/>
                        </Array>
                    </mxGeometry>
                </mxCell>
                <mxCell id="84" value="time_used" style="ellipse;whiteSpace=wrap;html=1;fontStyle=0;fontSize=12;strokeColor=default;" parent="1" vertex="1">
                    <mxGeometry x="1193.7600000000002" y="862" width="72" height="20" as="geometry"/>
                </mxCell>
                <mxCell id="85" value="output_hash" style="ellipse;whiteSpace=wrap;html=1;fontStyle=0;fontSize=12;strokeColor=default;" parent="1" vertex="1">
                    <mxGeometry x="1186.12" y="887" width="87.25" height="20" as="geometry"/>
                </mxCell>
                <mxCell id="86" style="edgeStyle=orthogonalEdgeStyle;rounded=0;orthogonalLoop=1;jettySize=auto;html=1;exitX=0;exitY=0.5;exitDx=0;exitDy=0;endArrow=none;endFill=0;fontStyle=0;fontSize=12;strokeColor=default;" parent="1" source="87" edge="1">
                    <mxGeometry relative="1" as="geometry">
                        <mxPoint x="1145" y="840" as="targetPoint"/>
                    </mxGeometry>
                </mxCell>
                <mxCell id="87" value="memory_used" style="ellipse;whiteSpace=wrap;html=1;fontStyle=0;fontSize=12;strokeColor=default;" parent="1" vertex="1">
                    <mxGeometry x="1180.75" y="837" width="95.25" height="20" as="geometry"/>
                </mxCell>
                <mxCell id="88" style="edgeStyle=orthogonalEdgeStyle;rounded=0;orthogonalLoop=1;jettySize=auto;html=1;exitX=0;exitY=0.5;exitDx=0;exitDy=0;endArrow=none;endFill=0;fontStyle=0;fontSize=12;strokeColor=default;" parent="1" source="89" edge="1">
                    <mxGeometry relative="1" as="geometry">
                        <mxPoint x="1145" y="922.2" as="targetPoint"/>
                    </mxGeometry>
                </mxCell>
                <mxCell id="89" value="judger_name" style="ellipse;whiteSpace=wrap;html=1;fontStyle=0;fontSize=12;strokeColor=default;" parent="1" vertex="1">
                    <mxGeometry x="1175.5" y="912" width="100.5" height="20" as="geometry"/>
                </mxCell>
                <mxCell id="90" style="edgeStyle=orthogonalEdgeStyle;rounded=0;orthogonalLoop=1;jettySize=auto;html=1;exitX=0;exitY=0.5;exitDx=0;exitDy=0;endArrow=none;endFill=0;fontStyle=0;fontSize=12;strokeColor=default;" parent="1" source="92" edge="1">
                    <mxGeometry relative="1" as="geometry">
                        <mxPoint x="1145" y="947" as="targetPoint"/>
                    </mxGeometry>
                </mxCell>
                <mxCell id="91" style="edgeStyle=orthogonalEdgeStyle;rounded=0;orthogonalLoop=1;jettySize=auto;html=1;exitX=0;exitY=0.5;exitDx=0;exitDy=0;endArrow=none;endFill=0;fontStyle=0;fontSize=12;strokeColor=default;" parent="1" source="92" edge="1">
                    <mxGeometry relative="1" as="geometry">
                        <mxPoint x="1145" y="817" as="targetPoint"/>
                    </mxGeometry>
                </mxCell>
                <mxCell id="92" value="judger_message" style="ellipse;whiteSpace=wrap;html=1;fontStyle=0;fontSize=12;strokeColor=default;" parent="1" vertex="1">
                    <mxGeometry x="1165" y="937" width="121.5" height="20" as="geometry"/>
                </mxCell>
                <mxCell id="95" style="edgeStyle=orthogonalEdgeStyle;rounded=0;orthogonalLoop=1;jettySize=auto;html=1;exitX=1;exitY=0.5;exitDx=0;exitDy=0;endArrow=none;endFill=0;fontStyle=0;fontSize=12;strokeColor=default;" parent="1" source="96" edge="1">
                    <mxGeometry relative="1" as="geometry">
                        <mxPoint x="989" y="607" as="targetPoint"/>
                    </mxGeometry>
                </mxCell>
                <mxCell id="113" style="edgeStyle=orthogonalEdgeStyle;html=1;fontSize=12;endArrow=none;endFill=0;strokeColor=default;rounded=0;" parent="1" edge="1">
                    <mxGeometry relative="1" as="geometry">
                        <mxPoint x="948.9999999999999" y="567.0000000000002" as="sourcePoint"/>
                        <mxPoint x="989" y="562" as="targetPoint"/>
                        <Array as="points">
                            <mxPoint x="989" y="567"/>
                        </Array>
                    </mxGeometry>
                </mxCell>
                <mxCell id="96" value="&lt;u style=&quot;font-size: 12px;&quot;&gt;id&lt;/u&gt;" style="ellipse;whiteSpace=wrap;html=1;fontStyle=0;fontSize=12;strokeColor=default;" parent="1" vertex="1">
                    <mxGeometry x="872" y="557" width="68" height="20" as="geometry"/>
                </mxCell>
                <mxCell id="98" value="name" style="ellipse;whiteSpace=wrap;html=1;fontStyle=4;fontSize=12;strokeColor=default;" parent="1" vertex="1">
                    <mxGeometry x="1244" y="90" width="68" height="20" as="geometry"/>
                </mxCell>
                <mxCell id="132" style="edgeStyle=orthogonalEdgeStyle;html=1;fontSize=12;endArrow=none;endFill=0;strokeColor=default;" parent="1" source="100" edge="1">
                    <mxGeometry relative="1" as="geometry">
                        <mxPoint x="1275" y="757" as="targetPoint"/>
                    </mxGeometry>
                </mxCell>
                <mxCell id="100" value="&lt;u style=&quot;font-size: 12px;&quot;&gt;id&lt;/u&gt;" style="ellipse;whiteSpace=wrap;html=1;fontStyle=0;fontSize=12;strokeColor=default;" parent="1" vertex="1">
                    <mxGeometry x="1296" y="842" width="70" height="20" as="geometry"/>
                </mxCell>
                <mxCell id="101" style="edgeStyle=orthogonalEdgeStyle;rounded=0;orthogonalLoop=1;jettySize=auto;html=1;exitX=0;exitY=0.5;exitDx=0;exitDy=0;entryX=0.5;entryY=0;entryDx=0;entryDy=0;endArrow=none;endFill=0;fontStyle=0;fontSize=12;strokeColor=default;" parent="1" source="102" target="24" edge="1">
                    <mxGeometry relative="1" as="geometry"/>
                </mxCell>
                <mxCell id="102" value="&lt;u style=&quot;font-size: 12px;&quot;&gt;name&lt;/u&gt;" style="ellipse;whiteSpace=wrap;html=1;fontStyle=0;fontSize=12;strokeColor=default;" parent="1" vertex="1">
                    <mxGeometry x="1381" y="190" width="68" height="20" as="geometry"/>
                </mxCell>
                <mxCell id="103" style="edgeStyle=orthogonalEdgeStyle;rounded=0;orthogonalLoop=1;jettySize=auto;html=1;endArrow=none;endFill=0;fontStyle=0;fontSize=12;strokeColor=default;entryX=0.887;entryY=0.992;entryDx=0;entryDy=0;entryPerimeter=0;" parent="1" source="104" target="20" edge="1">
                    <mxGeometry relative="1" as="geometry">
                        <Array as="points">
                            <mxPoint x="1324" y="617"/>
                        </Array>
                        <mxPoint x="1324" y="582" as="targetPoint"/>
                    </mxGeometry>
                </mxCell>
                <mxCell id="104" value="&lt;u style=&quot;font-size: 12px;&quot;&gt;name&lt;/u&gt;" style="ellipse;whiteSpace=wrap;html=1;fontStyle=0;fontSize=12;strokeColor=default;" parent="1" vertex="1">
                    <mxGeometry x="1330.5" y="607" width="68" height="20" as="geometry"/>
                </mxCell>
                <mxCell id="105" style="edgeStyle=orthogonalEdgeStyle;rounded=0;orthogonalLoop=1;jettySize=auto;html=1;exitX=0;exitY=0.5;exitDx=0;exitDy=0;endArrow=none;endFill=0;fontStyle=0;fontSize=12;strokeColor=default;" parent="1" source="106" edge="1">
                    <mxGeometry relative="1" as="geometry">
                        <mxPoint x="1145" y="819.1428571428571" as="targetPoint"/>
                    </mxGeometry>
                </mxCell>
                <mxCell id="106" value="status" style="ellipse;whiteSpace=wrap;html=1;fontStyle=0;fontSize=12;strokeColor=default;" parent="1" vertex="1">
                    <mxGeometry x="1193.75" y="809" width="72" height="20" as="geometry"/>
                </mxCell>
                <mxCell id="124" style="edgeStyle=orthogonalEdgeStyle;html=1;fontSize=12;endArrow=classic;endFill=1;strokeColor=default;rounded=0;" parent="1" source="7" target="OYt9u_9xjLAlxOfr2Ssf-11" edge="1">
                    <mxGeometry relative="1" as="geometry">
                        <Array as="points">
                            <mxPoint x="1035" y="392"/>
                            <mxPoint x="1078" y="392"/>
                        </Array>
                    </mxGeometry>
                </mxCell>
                <mxCell id="7" value="Has" style="rhombus;whiteSpace=wrap;html=1;fontSize=12;fontStyle=0;strokeColor=default;" parent="1" vertex="1">
                    <mxGeometry x="1005" y="402" width="60" height="60" as="geometry"/>
                </mxCell>
                <mxCell id="122" value="" style="edgeStyle=orthogonalEdgeStyle;rounded=0;orthogonalLoop=1;jettySize=auto;html=1;exitX=0.5;exitY=0;exitDx=0;exitDy=0;strokeColor=default;endArrow=none;endFill=0;" parent="1" source="OYt9u_9xjLAlxOfr2Ssf-14" target="OYt9u_9xjLAlxOfr2Ssf-11" edge="1">
                    <mxGeometry relative="1" as="geometry">
                        <mxPoint x="1080" y="518" as="sourcePoint"/>
                        <mxPoint x="1210" y="372" as="targetPoint"/>
                        <Array as="points">
                            <mxPoint x="799" y="445"/>
                            <mxPoint x="1000" y="445"/>
                            <mxPoint x="1000" y="352"/>
                        </Array>
                    </mxGeometry>
                </mxCell>
            </root>
        </mxGraphModel>
    </diagram>
</mxfile>